<svg width="230" height="85" viewBox="0 0 230 85" fill="none" xmlns="http://www.w3.org/2000/svg">
<path d="M65.3314 0H8.66857C3.89029 0 0 3.91 0 8.755V66.215C0 71.06 3.89029 74.97 8.66857 74.97H56.6206L54.3794 67.1075L59.792 72.165L64.9086 76.925L74 85V8.755C74 3.91 70.1097 0 65.3314 0Z" fill="white"/>
<path d="M56.8657 48.1647V17.35C56.8657 16.1577 55.8569 15.1489 54.6646 15.1489H24.5835C19.7229 15.1489 15.7793 19.0925 15.7793 23.9531V53.3005C15.7793 58.1612 19.7229 62.1048 24.5835 62.1048H54.6646C55.8569 62.1048 56.8657 61.1877 56.8657 59.9037V58.4363C56.8657 57.7944 56.4988 57.1524 56.0403 56.7856C55.5817 55.3182 55.5817 51.2829 56.0403 49.9073C56.4988 49.5404 56.8657 48.8984 56.8657 48.1647ZM27.5183 27.4381C27.5183 27.163 27.7017 26.8879 28.0685 26.8879H47.5112C47.7863 26.8879 48.0615 27.163 48.0615 27.4381V29.2723C48.0615 29.6392 47.7863 29.8226 47.5112 29.8226H28.0685C27.7017 29.8226 27.5183 29.6392 27.5183 29.2723V27.4381ZM27.5183 33.3076C27.5183 33.0325 27.7017 32.7574 28.0685 32.7574H47.5112C47.7863 32.7574 48.0615 33.0325 48.0615 33.3076V35.1418C48.0615 35.5087 47.7863 35.6921 47.5112 35.6921H28.0685C27.7017 35.6921 27.5183 35.5087 27.5183 35.1418V33.3076ZM50.7211 56.2353H24.5835C22.9327 56.2353 21.6488 54.9513 21.6488 53.3005C21.6488 51.7415 22.9327 50.3658 24.5835 50.3658H50.7211C50.5377 52.0166 50.5377 54.6762 50.7211 56.2353Z" fill="#7E76E4"/>
<path d="M108.058 34.1765H100.888V15.9909H108.058C110.912 15.9909 113.23 16.827 115.011 18.4993C116.81 20.1715 117.71 22.3709 117.71 25.0973C117.71 27.8238 116.82 30.0232 115.038 31.6954C113.257 33.3494 110.93 34.1765 108.058 34.1765ZM108.058 30.7684C109.803 30.7684 111.185 30.2231 112.203 29.1325C113.239 28.0419 113.757 26.6969 113.757 25.0973C113.757 23.4251 113.257 22.0619 112.257 21.0076C111.258 19.9352 109.858 19.399 108.058 19.399H104.759V30.7684H108.058ZM124.602 34.1765H120.73V15.9909H124.602V34.1765ZM134.947 34.5037C131.711 34.5037 129.148 33.5403 127.258 31.6136L129.357 28.669C130.92 30.3049 132.847 31.1228 135.137 31.1228C136.137 31.1228 136.91 30.932 137.455 30.5503C138.018 30.1504 138.3 29.6687 138.3 29.1052C138.3 28.6145 138.037 28.2055 137.509 27.8783C137.001 27.5512 136.355 27.3149 135.574 27.1694C134.81 27.024 133.974 26.815 133.065 26.5424C132.156 26.2697 131.311 25.9607 130.53 25.6154C129.766 25.27 129.121 24.7247 128.594 23.9795C128.085 23.2342 127.83 22.3254 127.83 21.253C127.83 19.6898 128.458 18.3811 129.712 17.3269C130.966 16.2545 132.638 15.7183 134.728 15.7183C137.619 15.7183 139.981 16.5635 141.817 18.2539L139.663 21.0894C138.227 19.7625 136.464 19.0991 134.374 19.0991C133.556 19.0991 132.92 19.2627 132.465 19.5899C132.011 19.917 131.784 20.3624 131.784 20.9258C131.784 21.3621 132.038 21.7347 132.547 22.0437C133.074 22.3345 133.72 22.5526 134.483 22.698C135.265 22.8434 136.101 23.0616 136.991 23.3524C137.9 23.625 138.736 23.9431 139.5 24.3067C140.281 24.652 140.927 25.2064 141.436 25.9698C141.963 26.715 142.226 27.6148 142.226 28.669C142.226 30.4139 141.599 31.8226 140.345 32.895C139.109 33.9674 137.31 34.5037 134.947 34.5037ZM153.912 34.5037C151.149 34.5037 148.841 33.6312 146.987 31.8862C145.151 30.1231 144.233 27.8602 144.233 25.0973C144.233 22.3345 145.151 20.0806 146.987 18.3357C148.841 16.5726 151.149 15.691 153.912 15.691C157.311 15.691 159.847 17.1724 161.519 20.1352L158.193 21.771C157.793 21.0076 157.202 20.3805 156.421 19.8898C155.657 19.3808 154.821 19.1264 153.912 19.1264C152.258 19.1264 150.895 19.6898 149.822 20.8168C148.75 21.9437 148.214 23.3706 148.214 25.0973C148.214 26.8241 148.75 28.2509 149.822 29.3779C150.895 30.5048 152.258 31.0683 153.912 31.0683C154.821 31.0683 155.657 30.8229 156.421 30.3322C157.202 29.8414 157.793 29.2052 158.193 28.4236L161.519 30.0322C159.792 33.0132 157.257 34.5037 153.912 34.5037ZM172.712 34.5037C169.967 34.5037 167.695 33.6221 165.896 31.859C164.114 30.0777 163.224 27.8238 163.224 25.0973C163.224 22.3709 164.114 20.1261 165.896 18.3629C167.695 16.5817 169.967 15.691 172.712 15.691C175.475 15.691 177.747 16.5726 179.528 18.3357C181.327 20.0988 182.227 22.3527 182.227 25.0973C182.227 27.842 181.327 30.0959 179.528 31.859C177.747 33.6221 175.475 34.5037 172.712 34.5037ZM168.704 29.3779C169.722 30.5048 171.058 31.0683 172.712 31.0683C174.366 31.0683 175.702 30.5048 176.72 29.3779C177.738 28.2509 178.247 26.8241 178.247 25.0973C178.247 23.3706 177.738 21.9437 176.72 20.8168C175.702 19.6898 174.366 19.1264 172.712 19.1264C171.058 19.1264 169.722 19.6898 168.704 20.8168C167.704 21.9437 167.204 23.3706 167.204 25.0973C167.204 26.8241 167.704 28.2509 168.704 29.3779ZM199.94 34.1765H195.496L191.924 27.7147H189.088V34.1765H185.217V15.9909H193.723C195.595 15.9909 197.077 16.5362 198.167 17.6268C199.276 18.7174 199.831 20.1261 199.831 21.8528C199.831 23.3433 199.44 24.552 198.658 25.479C197.895 26.406 196.959 26.9968 195.85 27.2512L199.94 34.1765ZM193.151 24.3067C193.951 24.3067 194.605 24.0885 195.114 23.6523C195.623 23.1979 195.877 22.5981 195.877 21.8528C195.877 21.1076 195.623 20.5169 195.114 20.0806C194.605 19.6262 193.951 19.399 193.151 19.399H189.088V24.3067H193.151ZM210.18 34.1765H203.009V15.9909H210.18C213.033 15.9909 215.351 16.827 217.132 18.4993C218.932 20.1715 219.831 22.3709 219.831 25.0973C219.831 27.8238 218.941 30.0232 217.159 31.6954C215.378 33.3494 213.052 34.1765 210.18 34.1765ZM210.18 30.7684C211.925 30.7684 213.306 30.2231 214.324 29.1325C215.36 28.0419 215.878 26.6969 215.878 25.0973C215.878 23.4251 215.378 22.0619 214.378 21.0076C213.379 19.9352 211.979 19.399 210.18 19.399H206.881V30.7684H210.18ZM110.758 67.1765H100.888V48.9909H110.458C112.112 48.9909 113.393 49.4453 114.302 50.3542C115.229 51.2448 115.693 52.3354 115.693 53.6259C115.693 54.7347 115.393 55.6617 114.793 56.4069C114.193 57.1522 113.448 57.6157 112.557 57.7974C113.539 57.9428 114.366 58.4427 115.038 59.297C115.711 60.1513 116.047 61.1419 116.047 62.2688C116.047 63.6866 115.584 64.859 114.657 65.786C113.73 66.713 112.43 67.1765 110.758 67.1765ZM109.613 56.2706C110.267 56.2706 110.785 56.0888 111.167 55.7253C111.548 55.3618 111.739 54.8892 111.739 54.3075C111.739 53.7259 111.539 53.2533 111.139 52.8898C110.758 52.5081 110.249 52.3172 109.613 52.3172H104.759V56.2706H109.613ZM109.749 63.8229C110.476 63.8229 111.048 63.6412 111.467 63.2776C111.885 62.8959 112.094 62.3779 112.094 61.7235C112.094 61.1237 111.885 60.6239 111.467 60.224C111.048 59.8059 110.476 59.5969 109.749 59.5969H104.759V63.8229H109.749ZM127.855 67.5037C125.11 67.5037 122.838 66.6221 121.039 64.859C119.258 63.0777 118.367 60.8238 118.367 58.0973C118.367 55.3709 119.258 53.1261 121.039 51.3629C122.838 49.5817 125.11 48.691 127.855 48.691C130.618 48.691 132.89 49.5726 134.671 51.3357C136.471 53.0988 137.37 55.3527 137.37 58.0973C137.37 60.842 136.471 63.0959 134.671 64.859C132.89 66.6221 130.618 67.5037 127.855 67.5037ZM123.847 62.3779C124.865 63.5048 126.201 64.0683 127.855 64.0683C129.509 64.0683 130.845 63.5048 131.863 62.3779C132.881 61.2509 133.39 59.8241 133.39 58.0973C133.39 56.3706 132.881 54.9437 131.863 53.8168C130.845 52.6898 129.509 52.1264 127.855 52.1264C126.201 52.1264 124.865 52.6898 123.847 53.8168C122.847 54.9437 122.348 56.3706 122.348 58.0973C122.348 59.8241 122.847 61.2509 123.847 62.3779ZM148.976 67.5037C146.231 67.5037 143.959 66.6221 142.159 64.859C140.378 63.0777 139.487 60.8238 139.487 58.0973C139.487 55.3709 140.378 53.1261 142.159 51.3629C143.959 49.5817 146.231 48.691 148.976 48.691C151.738 48.691 154.01 49.5726 155.792 51.3357C157.591 53.0988 158.491 55.3527 158.491 58.0973C158.491 60.842 157.591 63.0959 155.792 64.859C154.01 66.6221 151.738 67.5037 148.976 67.5037ZM144.968 62.3779C145.986 63.5048 147.321 64.0683 148.976 64.0683C150.63 64.0683 151.966 63.5048 152.983 62.3779C154.001 61.2509 154.51 59.8241 154.51 58.0973C154.51 56.3706 154.001 54.9437 152.983 53.8168C151.966 52.6898 150.63 52.1264 148.976 52.1264C147.321 52.1264 145.986 52.6898 144.968 53.8168C143.968 54.9437 143.468 56.3706 143.468 58.0973C143.468 59.8241 143.968 61.2509 144.968 62.3779ZM177.049 67.1765H172.277L166.77 59.8968L165.352 61.5872V67.1765H161.48V48.9909H165.352V57.1158L171.787 48.9909H176.558L169.333 57.5248L177.049 67.1765Z" fill="white"/>
</svg>
